<svg xmlns="http://www.w3.org/2000/svg" viewBox="0 0 1133.84 743.71"><defs><style>.cls-1{fill:#f15a29;}</style></defs><g id="Layer_2" data-name="Layer 2"><g id="Layer_1-2" data-name="Layer 1"><path class="cls-1" d="M762,0A371,371,0,0,0,481.27,128a3,3,0,0,0,2.23,4.89H583.84a2.92,2.92,0,0,0,1.74-.57A295.81,295.81,0,0,1,748.64,74.67c174.33-7.7,318.49,136.7,310.52,311C1051.93,543.56,921.65,669.34,762,669.34A296.12,296.12,0,0,1,583.7,610a3,3,0,0,0-1.76-.59H482.28a3,3,0,0,0-2.24,4.89c74.23,86.25,187.37,138.06,312.17,128.21C970.8,728.41,1114.41,587.9,1132,409.62,1153.89,187.28,979.81,0,762,0Z"/><path class="cls-1" d="M985.1,373.3C984.32,495.85,884.73,595,762,595H447.13a47.45,47.45,0,0,1-33.55-13.9l-37.83-37.83a13.26,13.26,0,0,1,9.38-22.64H582.56a20,20,0,0,0,20-20V277.79a24.55,24.55,0,0,1,24.56-24.56H664a13,13,0,0,1,13,13V500.42a20.19,20.19,0,0,0,20.18,20.18H762A148.75,148.75,0,0,0,910.73,372.11c.14-81.95-68.07-149-150-149H76.43A50.24,50.24,0,0,1,40.91,208.4l-37-37a13.28,13.28,0,0,1,9.38-22.67H760.53C884,148.74,985.88,249.79,985.1,373.3Z"/></g></g></svg>